 <svg class="person tiktok" height="100%"
                            style="fill-rule:evenodd;clip-rule:evenodd;stroke-linejoin:round;stroke-miterlimit:2;"
                            version="1.1" viewBox="0 0 24 24" width="100%" xml:space="preserve"
                            xmlns="http://www.w3.org/2000/svg" xmlns:serif="http://www.serif.com/"
                            xmlns:xlink="http://www.w3.org/1999/xlink">
                            <path
                                d="M23,7c-0,-3.311 -2.689,-6 -6,-6l-10,0c-3.311,0 -6,2.689 -6,6l0,10c0,3.311 2.689,6 6,6l10,-0c3.311,-0 6,-2.689 6,-6l-0,-10Zm-2,-0l-0,10c-0,2.208 -1.792,4 -4,4c0,0 -10,0 -10,0c-2.208,0 -4,-1.792 -4,-4c0,0 0,-10 0,-10c0,-2.208 1.792,-4 4,-4c-0,0 10,0 10,0c2.208,0 4,1.792 4,4Z" />
                            <path
                                d="M12,6.471l2,0c0.567,1.124 1.214,1.877 2,2l-0,2c-0.723,-0.054 -1.403,-0.32 -2,-1l-0,4.812c-0,0.894 -0.123,1.623 -0.592,2.185c-0.269,0.324 -0.612,0.582 -1.028,0.774c-0.416,0.191 -0.843,0.287 -1.28,0.287c-0.871,-0 -1.606,-0.293 -2.204,-0.879c-0.597,-0.586 -0.896,-1.305 -0.896,-2.156c-0,-0.825 0.297,-1.537 0.891,-2.139c0.593,-0.602 1.297,-0.902 2.109,-0.902c0.129,-0 0.324,0.011 0.586,0.035l-0,2.414c-0.18,-0.141 -0.359,-0.211 -0.539,-0.211c-0.227,-0 -0.421,0.083 -0.583,0.249c-0.162,0.166 -0.243,0.366 -0.243,0.601c-0,0.226 0.084,0.42 0.252,0.583c0.168,0.162 0.369,0.243 0.603,0.243c0.563,-0 0.924,-0.389 0.924,-1.166l-0,-7.73Z"
                                style="fill-rule:nonzero;" />
                        </svg>